<svg xmlns="http://www.w3.org/2000/svg" viewBox="0 0 512 512">
  <defs>
    <linearGradient id="bg" x1="0%" y1="0%" x2="100%" y2="100%">
      <stop offset="0%" style="stop-color:#2d2d5a"/>
      <stop offset="100%" style="stop-color:#1a1a2e"/>
    </linearGradient>
    <linearGradient id="bubble" x1="0%" y1="0%" x2="100%" y2="100%">
      <stop offset="0%" style="stop-color:#6366f1"/>
      <stop offset="100%" style="stop-color:#8b5cf6"/>
    </linearGradient>
  </defs>

  <!-- Background -->
  <rect width="512" height="512" rx="96" fill="url(#bg)"/>

  <!-- Chat bubble -->
  <path d="M128 140 h256 q32 0 32 32 v160 q0 32 -32 32 h-160 l-64 56 v-56 h-32 q-32 0 -32 -32 v-160 q0 -32 32 -32z"
        fill="url(#bubble)" opacity="0.9"/>

  <!-- AI sparkle/stars -->
  <g fill="#fbbf24">
    <!-- Main star -->
    <path d="M320 200 l8 24 l24 8 l-24 8 l-8 24 l-8 -24 l-24 -8 l24 -8z"/>
    <!-- Small star -->
    <path d="M220 180 l5 15 l15 5 l-15 5 l-5 15 l-5 -15 l-15 -5 l15 -5z"/>
    <!-- Tiny star -->
    <path d="M360 280 l4 12 l12 4 l-12 4 l-4 12 l-4 -12 l-12 -4 l12 -4z"/>
  </g>

  <!-- Dots representing typing/thinking -->
  <g fill="rgba(255,255,255,0.8)">
    <circle cx="200" cy="252" r="14"/>
    <circle cx="256" cy="252" r="14"/>
    <circle cx="312" cy="252" r="14"/>
  </g>
</svg>
